<svg width="105" height="105" viewBox="0 0 105 105" fill="none" xmlns="http://www.w3.org/2000/svg">
<path fill-rule="evenodd" clip-rule="evenodd" d="M100 52.5C100 78.7335 78.7335 100 52.5 100C26.2665 100 5 78.7335 5 52.5C5 26.2665 26.2665 5 52.5 5C78.7335 5 100 26.2665 100 52.5ZM105 52.5C105 81.4949 81.4949 105 52.5 105C23.5051 105 0 81.4949 0 52.5C0 23.5051 23.5051 0 52.5 0C81.4949 0 105 23.5051 105 52.5ZM52.5 95C75.9721 95 95 75.9721 95 52.5C95 29.0279 75.9721 10 52.5 10C29.0279 10 10 29.0279 10 52.5C10 75.9721 29.0279 95 52.5 95Z" fill="white"/>
</svg>
