<svg width="51" height="40" viewBox="0 0 51 40" fill="none" xmlns="http://www.w3.org/2000/svg">
<path d="M6.52036 39.5996H44.4797C46.6392 39.5996 48.2658 39.0632 49.3595 37.9904C50.4532 36.9175 51 35.3082 51 33.1624V11.421C51 9.28908 50.4532 7.68668 49.3595 6.61379C48.2658 5.54092 46.6392 5.00448 44.4797 5.00448H38.5407C37.987 5.00448 37.544 4.96295 37.2117 4.87988C36.8794 4.79682 36.5853 4.65493 36.3292 4.4542C36.0731 4.25345 35.7858 3.98003 35.4674 3.63394L33.8061 1.76506C33.2939 1.19747 32.7264 0.761401 32.1035 0.45684C31.4804 0.15228 30.6359 0 29.5699 0H21.2847C20.2186 0 19.3776 0.15228 18.7616 0.45684C18.1455 0.761401 17.5745 1.19747 17.0484 1.76506L15.3872 3.63394C14.9304 4.14616 14.5081 4.50264 14.1205 4.70337C13.7329 4.90411 13.1307 5.00448 12.3139 5.00448H6.52036C4.3469 5.00448 2.71681 5.54092 1.63009 6.61379C0.543363 7.68668 0 9.28908 0 11.421V33.1624C0 35.3082 0.543363 36.9175 1.63009 37.9904C2.71681 39.0632 4.3469 39.5996 6.52036 39.5996ZM6.56189 36.2565C5.53745 36.2565 4.7449 35.9831 4.18423 35.4362C3.62357 34.8894 3.34325 34.0761 3.34325 32.9963V11.6079C3.34325 10.5281 3.62357 9.71477 4.18423 9.16794C4.7449 8.62112 5.53745 8.34771 6.56189 8.34771H13.1445C14.0859 8.34771 14.8438 8.24042 15.4184 8.02584C15.9929 7.81127 16.5431 7.41327 17.0692 6.83183L18.6889 5.00448C19.2842 4.33999 19.8102 3.89699 20.2671 3.67549C20.7239 3.454 21.4092 3.34325 22.3228 3.34325H28.5318C29.4454 3.34325 30.1307 3.454 30.5876 3.67549C31.0443 3.89699 31.5704 4.33999 32.1658 5.00448L33.7854 6.83183C34.3115 7.41327 34.8618 7.81127 35.4362 8.02584C36.0107 8.24042 36.7687 8.34771 37.7101 8.34771H44.4174C45.4417 8.34771 46.2377 8.62112 46.8053 9.16794C47.3729 9.71477 47.6567 10.5281 47.6567 11.6079V32.9963C47.6567 34.0761 47.3729 34.8894 46.8053 35.4362C46.2377 35.9831 45.4417 36.2565 44.4174 36.2565H6.56189ZM25.5 33.2662C27.0643 33.2662 28.5317 32.9755 29.9022 32.3942C31.2728 31.8127 32.4772 31.0028 33.5154 29.9646C34.5536 28.9263 35.3635 27.7219 35.945 26.3514C36.5265 24.9809 36.8172 23.4996 36.8172 21.9075C36.8172 19.8033 36.3119 17.8929 35.3013 16.1763C34.2907 14.4597 32.9271 13.0961 31.2104 12.0855C29.4938 11.0749 27.5904 10.5696 25.5 10.5696C23.9218 10.5696 22.4474 10.8603 21.0769 11.4418C19.7064 12.0232 18.5055 12.8331 17.4741 13.8713C16.4428 14.9096 15.6329 16.114 15.0446 17.4845C14.4562 18.855 14.162 20.3293 14.162 21.9075C14.162 23.4996 14.4562 24.9809 15.0446 26.3514C15.6329 27.7219 16.4428 28.9263 17.4741 29.9646C18.5055 31.0028 19.7064 31.8127 21.0769 32.3942C22.4474 32.9755 23.9218 33.2662 25.5 33.2662ZM25.5 30.11C23.991 30.11 22.617 29.7431 21.378 29.0094C20.139 28.2756 19.1492 27.2893 18.4086 26.0503C17.6679 24.8113 17.2976 23.4304 17.2976 21.9075C17.2976 20.3986 17.6679 19.0246 18.4086 17.7856C19.1492 16.5466 20.139 15.5568 21.378 14.8161C22.617 14.0755 23.991 13.7052 25.5 13.7052C27.0089 13.7052 28.3829 14.0755 29.622 14.8161C30.861 15.5568 31.8473 16.5466 32.5811 17.7856C33.3147 19.0246 33.6815 20.3986 33.6815 21.9075C33.6815 23.4304 33.3147 24.8113 32.5811 26.0503C31.8473 27.2893 30.861 28.2756 29.622 29.0094C28.3829 29.7431 27.0089 30.11 25.5 30.11ZM37.6684 14.2659C37.6684 14.9996 37.9246 15.6156 38.4369 16.114C38.9491 16.6124 39.5651 16.8546 40.2849 16.8408C40.9772 16.8408 41.5793 16.5916 42.0915 16.0932C42.6037 15.5949 42.8598 14.9857 42.8598 14.2659C42.8598 13.5737 42.6037 12.9715 42.0915 12.4593C41.5793 11.9471 40.9772 11.691 40.2849 11.691C39.5651 11.691 38.9491 11.9471 38.4369 12.4593C37.9246 12.9715 37.6684 13.5737 37.6684 14.2659Z" fill="#F8C036"/>
</svg>
