<svg width="340" height="470" viewBox="0 0 340 470" fill="none" xmlns="http://www.w3.org/2000/svg">
<path fill-rule="evenodd" clip-rule="evenodd" d="M116.717 13.6728H119.683L120.654 10.6877H125.381L126.35 13.6728H129.316L124.803 0.581909H121.237L116.717 13.6728ZM124.679 8.52722L123.071 3.57339H122.969L121.357 8.52722H124.679ZM135.448 5.90009V3.85464H133.6V1.50236H130.877V3.85464H129.535V5.90009H130.877V11.0137C130.873 11.6572 131.007 12.1899 131.28 12.6117C131.553 13.0336 131.934 13.3447 132.424 13.545C132.919 13.7453 133.494 13.8326 134.15 13.8071C134.504 13.7943 134.804 13.758 135.051 13.6984C135.298 13.643 135.49 13.594 135.627 13.5514L135.198 11.5251C135.13 11.5379 135.032 11.5571 134.904 11.5826C134.776 11.6039 134.649 11.6146 134.521 11.6146C134.338 11.6146 134.176 11.5869 134.035 11.5315C133.899 11.4761 133.792 11.3802 133.715 11.2438C133.639 11.1032 133.6 10.9072 133.6 10.6558V5.90009H135.448ZM140.155 13.6728V7.99668C140.16 7.57481 140.241 7.21472 140.398 6.91643C140.56 6.61387 140.782 6.38376 141.063 6.22609C141.349 6.06842 141.677 5.98958 142.047 5.98958C142.601 5.98958 143.032 6.1579 143.339 6.49455C143.65 6.8312 143.803 7.30208 143.799 7.90719V13.6728H146.522V7.4214C146.526 6.65435 146.385 5.99597 146.1 5.44626C145.819 4.89228 145.422 4.46827 144.911 4.17424C144.404 3.87594 143.809 3.7268 143.128 3.7268C142.382 3.7268 141.762 3.89299 141.268 4.22537C140.773 4.5535 140.415 5.00734 140.194 5.58688H140.079V0.581909H137.432V13.6728H140.155ZM151.388 13.6728V0.581909H148.665V13.6728H151.388ZM155.436 13.2509C156.164 13.66 157.034 13.8646 158.044 13.8646C158.853 13.8646 159.567 13.741 160.185 13.4938C160.807 13.2424 161.314 12.893 161.706 12.4455C162.102 11.9938 162.365 11.4654 162.492 10.8603L159.974 10.6941C159.88 10.9413 159.744 11.1501 159.565 11.3205C159.386 11.491 159.171 11.6188 158.919 11.7041C158.668 11.7893 158.391 11.8319 158.088 11.8319C157.632 11.8319 157.238 11.736 156.906 11.5443C156.573 11.3525 156.316 11.0798 156.132 10.7261C155.953 10.3724 155.864 9.95265 155.864 9.46685V9.46046H162.55V8.71259C162.55 7.87736 162.433 7.14867 162.198 6.52651C161.964 5.90009 161.636 5.38021 161.214 4.96685C160.796 4.5535 160.306 4.24455 159.744 4.04001C159.186 3.8312 158.583 3.7268 157.935 3.7268C156.972 3.7268 156.132 3.93986 155.416 4.366C154.705 4.79214 154.153 5.3866 153.761 6.14938C153.369 6.91217 153.173 7.79853 153.173 8.80847C153.173 9.84398 153.369 10.741 153.761 11.4995C154.153 12.2538 154.711 12.8376 155.436 13.2509ZM155.866 7.77296C155.883 7.4204 155.974 7.09867 156.139 6.80776C156.318 6.48816 156.565 6.23461 156.88 6.04711C157.2 5.85535 157.566 5.75947 157.98 5.75947C158.376 5.75947 158.723 5.84682 159.021 6.02154C159.324 6.19199 159.561 6.4285 159.731 6.73106C159.901 7.03361 159.987 7.38092 159.987 7.77296H155.866ZM169.549 5.90009V3.85464H167.702V1.50236H164.979V3.85464H163.637V5.90009H164.979V11.0137C164.975 11.6572 165.109 12.1899 165.382 12.6117C165.654 13.0336 166.036 13.3447 166.526 13.545C167.02 13.7453 167.595 13.8326 168.252 13.8071C168.605 13.7943 168.906 13.758 169.153 13.6984C169.4 13.643 169.592 13.594 169.728 13.5514L169.3 11.5251C169.232 11.5379 169.134 11.5571 169.006 11.5826C168.878 11.6039 168.75 11.6146 168.622 11.6146C168.439 11.6146 168.277 11.5869 168.137 11.5315C168 11.4761 167.894 11.3802 167.817 11.2438C167.74 11.1032 167.702 10.9072 167.702 10.6558V5.90009H169.549ZM173.084 13.2509C173.813 13.66 174.682 13.8646 175.692 13.8646C176.502 13.8646 177.215 13.741 177.833 13.4938C178.455 13.2424 178.963 12.893 179.355 12.4455C179.751 11.9938 180.013 11.4654 180.141 10.8603L177.622 10.6941C177.529 10.9413 177.392 11.1501 177.213 11.3205C177.034 11.491 176.819 11.6188 176.568 11.7041C176.316 11.7893 176.039 11.8319 175.737 11.8319C175.281 11.8319 174.887 11.736 174.554 11.5443C174.222 11.3525 173.964 11.0798 173.781 10.7261C173.602 10.3724 173.512 9.95265 173.512 9.46685V9.46046H180.198V8.71259C180.198 7.87736 180.081 7.14867 179.847 6.52651C179.612 5.90009 179.284 5.38021 178.862 4.96685C178.445 4.5535 177.955 4.24455 177.392 4.04001C176.834 3.8312 176.231 3.7268 175.583 3.7268C174.62 3.7268 173.781 3.93986 173.065 4.366C172.353 4.79214 171.801 5.3866 171.409 6.14938C171.017 6.91217 170.821 7.79853 170.821 8.80847C170.821 9.84398 171.017 10.741 171.409 11.4995C171.801 12.2538 172.36 12.8376 173.084 13.2509ZM173.515 7.77296C173.531 7.4204 173.622 7.09867 173.787 6.80776C173.966 6.48816 174.213 6.23461 174.529 6.04711C174.848 5.85535 175.215 5.75947 175.628 5.75947C176.024 5.75947 176.372 5.84682 176.67 6.02154C176.972 6.19199 177.209 6.4285 177.379 6.73106C177.55 7.03361 177.635 7.38092 177.635 7.77296H173.515ZM188.864 13.6728V7.99668C188.869 7.57481 188.95 7.21472 189.107 6.91643C189.269 6.61387 189.491 6.38376 189.772 6.22609C190.058 6.06842 190.386 5.98958 190.756 5.98958C191.31 5.98958 191.741 6.1579 192.048 6.49455C192.359 6.8312 192.512 7.30208 192.508 7.90719V13.6728H195.231V7.4214C195.235 6.65435 195.094 5.99597 194.809 5.44626C194.528 4.89228 194.131 4.46827 193.62 4.17424C193.113 3.87594 192.518 3.7268 191.837 3.7268C191.091 3.7268 190.471 3.89299 189.977 4.22537C189.482 4.5535 189.124 5.00734 188.903 5.58688H188.788V0.581909H186.141V13.6728H188.864ZM199.24 13.2509C199.969 13.66 200.838 13.8646 201.848 13.8646C202.658 13.8646 203.372 13.741 203.99 13.4938C204.612 13.2424 205.119 12.893 205.511 12.4455C205.907 11.9938 206.169 11.4654 206.297 10.8603L203.779 10.6941C203.685 10.9413 203.548 11.1501 203.369 11.3205C203.191 11.491 202.975 11.6188 202.724 11.7041C202.472 11.7893 202.195 11.8319 201.893 11.8319C201.437 11.8319 201.043 11.736 200.71 11.5443C200.378 11.3525 200.12 11.0798 199.937 10.7261C199.758 10.3724 199.669 9.95265 199.669 9.46685V9.46046H206.355V8.71259C206.355 7.87736 206.237 7.14867 206.003 6.52651C205.769 5.90009 205.441 5.38021 205.019 4.96685C204.601 4.5535 204.111 4.24455 203.548 4.04001C202.99 3.8312 202.387 3.7268 201.74 3.7268C200.776 3.7268 199.937 3.93986 199.221 4.366C198.509 4.79214 197.958 5.3866 197.566 6.14938C197.173 6.91217 196.977 7.79853 196.977 8.80847C196.977 9.84398 197.173 10.741 197.566 11.4995C197.958 12.2538 198.516 12.8376 199.24 13.2509ZM199.671 7.77296C199.687 7.4204 199.778 7.09867 199.943 6.80776C200.122 6.48816 200.369 6.23461 200.685 6.04711C201.004 5.85535 201.371 5.75947 201.784 5.75947C202.181 5.75947 202.528 5.84682 202.826 6.02154C203.129 6.19199 203.365 6.4285 203.536 6.73106C203.706 7.03361 203.791 7.38092 203.791 7.77296H199.671ZM208.132 3.85464V13.6728H210.855V8.11813C210.855 7.71756 210.944 7.36387 211.123 7.05705C211.306 6.75023 211.553 6.5116 211.865 6.34114C212.18 6.16643 212.538 6.07907 212.938 6.07907C213.126 6.07907 213.333 6.09398 213.558 6.12381C213.784 6.15364 213.961 6.18773 214.089 6.22609V3.80989C213.97 3.78006 213.831 3.75663 213.673 3.73958C213.516 3.72253 213.369 3.71401 213.232 3.71401C212.683 3.71401 212.197 3.87168 211.775 4.18702C211.353 4.4981 211.053 4.95833 210.874 5.56771H210.771V3.85464H208.132ZM216.906 13.2509C217.635 13.66 218.504 13.8646 219.514 13.8646C220.324 13.8646 221.038 13.741 221.656 13.4938C222.278 13.2424 222.785 12.893 223.177 12.4455C223.573 11.9938 223.835 11.4654 223.963 10.8603L221.445 10.6941C221.351 10.9413 221.214 11.1501 221.036 11.3205C220.857 11.491 220.641 11.6188 220.39 11.7041C220.138 11.7893 219.862 11.8319 219.559 11.8319C219.103 11.8319 218.709 11.736 218.376 11.5443C218.044 11.3525 217.786 11.0798 217.603 10.7261C217.424 10.3724 217.335 9.95265 217.335 9.46685V9.46046H224.021V8.71259C224.021 7.87736 223.903 7.14867 223.669 6.52651C223.435 5.90009 223.107 5.38021 222.685 4.96685C222.267 4.5535 221.777 4.24455 221.214 4.04001C220.656 3.8312 220.053 3.7268 219.406 3.7268C218.442 3.7268 217.603 3.93986 216.887 4.366C216.175 4.79214 215.624 5.3866 215.232 6.14938C214.839 6.91217 214.643 7.79853 214.643 8.80847C214.643 9.84398 214.839 10.741 215.232 11.4995C215.624 12.2538 216.182 12.8376 216.906 13.2509ZM217.337 7.77296C217.354 7.4204 217.444 7.09867 217.609 6.80776C217.788 6.48816 218.036 6.23461 218.351 6.04711C218.67 5.85535 219.037 5.75947 219.45 5.75947C219.847 5.75947 220.194 5.84682 220.492 6.02154C220.795 6.19199 221.031 6.4285 221.202 6.73106C221.372 7.03361 221.457 7.38092 221.457 7.77296H217.337ZM3 4.39114H0.5V6.89114V24.1501H3V449.584H0.5V466.843V469.343H3H23V467.706H317V469.343H337H339.5V466.843V449.584H338V24.1501H339.5V6.89114V4.39114H337H317V5.89114L242 5.89114V6.89114L317 6.89114V9.39114H334.5V24.1501H337V449.584H334.5V464.343H317V466.706H23V464.343H5.5V449.584H4V24.1501H5.5V9.39114H23V6.89114H98V5.89114H23V4.39114H3Z" fill="#F8C036"/>
</svg>
