<svg width="340" height="545" viewBox="0 0 340 545" fill="none" xmlns="http://www.w3.org/2000/svg">
<path fill-rule="evenodd" clip-rule="evenodd" d="M116.717 14H119.683L120.654 11.0149H125.381L126.35 14H129.316L124.803 0.909091H121.237L116.717 14ZM124.679 8.8544L123.071 3.90057H122.969L121.357 8.8544H124.679ZM135.448 6.22727V4.18182H133.6V1.82955H130.877V4.18182H129.535V6.22727H130.877V11.3409C130.873 11.9844 131.007 12.517 131.28 12.9389C131.553 13.3608 131.934 13.6719 132.424 13.8722C132.919 14.0724 133.494 14.1598 134.15 14.1342C134.504 14.1214 134.804 14.0852 135.051 14.0256C135.298 13.9702 135.49 13.9212 135.627 13.8786L135.198 11.8523C135.13 11.8651 135.032 11.8842 134.904 11.9098C134.776 11.9311 134.649 11.9418 134.521 11.9418C134.338 11.9418 134.176 11.9141 134.035 11.8587C133.899 11.8033 133.792 11.7074 133.715 11.571C133.639 11.4304 133.6 11.2344 133.6 10.983V6.22727H135.448ZM140.155 14V8.32386C140.16 7.90199 140.241 7.5419 140.398 7.24361C140.56 6.94105 140.782 6.71094 141.063 6.55327C141.349 6.3956 141.677 6.31676 142.047 6.31676C142.601 6.31676 143.032 6.48509 143.339 6.82173C143.65 7.15838 143.803 7.62926 143.799 8.23438V14H146.522V7.74858C146.526 6.98153 146.385 6.32315 146.1 5.77344C145.819 5.21946 145.422 4.79545 144.911 4.50142C144.404 4.20312 143.809 4.05398 143.128 4.05398C142.382 4.05398 141.762 4.22017 141.268 4.55256C140.773 4.88068 140.415 5.33452 140.194 5.91406H140.079V0.909091H137.432V14H140.155ZM151.388 14V0.909091H148.665V14H151.388ZM155.436 13.5781C156.164 13.9872 157.034 14.1918 158.044 14.1918C158.853 14.1918 159.567 14.0682 160.185 13.821C160.807 13.5696 161.314 13.2202 161.706 12.7727C162.102 12.321 162.365 11.7926 162.492 11.1875L159.974 11.0213C159.88 11.2685 159.744 11.4773 159.565 11.6477C159.386 11.8182 159.171 11.946 158.919 12.0312C158.668 12.1165 158.391 12.1591 158.088 12.1591C157.632 12.1591 157.238 12.0632 156.906 11.8714C156.573 11.6797 156.316 11.407 156.132 11.0533C155.953 10.6996 155.864 10.2798 155.864 9.79403V9.78764H162.55V9.03977C162.55 8.20455 162.433 7.47585 162.198 6.85369C161.964 6.22727 161.636 5.70739 161.214 5.29403C160.796 4.88068 160.306 4.57173 159.744 4.36719C159.186 4.15838 158.583 4.05398 157.935 4.05398C156.972 4.05398 156.132 4.26705 155.416 4.69318C154.705 5.11932 154.153 5.71378 153.761 6.47656C153.369 7.23935 153.173 8.12571 153.173 9.13565C153.173 10.1712 153.369 11.0682 153.761 11.8267C154.153 12.581 154.711 13.1648 155.436 13.5781ZM155.866 8.10014C155.883 7.74758 155.974 7.42585 156.139 7.13494C156.318 6.81534 156.565 6.56179 156.88 6.37429C157.2 6.18253 157.566 6.08665 157.98 6.08665C158.376 6.08665 158.723 6.17401 159.021 6.34872C159.324 6.51918 159.561 6.75568 159.731 7.05824C159.901 7.3608 159.987 7.7081 159.987 8.10014H155.866ZM169.549 6.22727V4.18182H167.702V1.82955H164.979V4.18182H163.637V6.22727H164.979V11.3409C164.975 11.9844 165.109 12.517 165.382 12.9389C165.654 13.3608 166.036 13.6719 166.526 13.8722C167.02 14.0724 167.595 14.1598 168.252 14.1342C168.605 14.1214 168.906 14.0852 169.153 14.0256C169.4 13.9702 169.592 13.9212 169.728 13.8786L169.3 11.8523C169.232 11.8651 169.134 11.8842 169.006 11.9098C168.878 11.9311 168.75 11.9418 168.622 11.9418C168.439 11.9418 168.277 11.9141 168.137 11.8587C168 11.8033 167.894 11.7074 167.817 11.571C167.74 11.4304 167.702 11.2344 167.702 10.983V6.22727H169.549ZM173.084 13.5781C173.813 13.9872 174.682 14.1918 175.692 14.1918C176.502 14.1918 177.215 14.0682 177.833 13.821C178.455 13.5696 178.963 13.2202 179.355 12.7727C179.751 12.321 180.013 11.7926 180.141 11.1875L177.622 11.0213C177.529 11.2685 177.392 11.4773 177.213 11.6477C177.034 11.8182 176.819 11.946 176.568 12.0312C176.316 12.1165 176.039 12.1591 175.737 12.1591C175.281 12.1591 174.887 12.0632 174.554 11.8714C174.222 11.6797 173.964 11.407 173.781 11.0533C173.602 10.6996 173.512 10.2798 173.512 9.79403V9.78764H180.198V9.03977C180.198 8.20455 180.081 7.47585 179.847 6.85369C179.612 6.22727 179.284 5.70739 178.862 5.29403C178.445 4.88068 177.955 4.57173 177.392 4.36719C176.834 4.15838 176.231 4.05398 175.583 4.05398C174.62 4.05398 173.781 4.26705 173.065 4.69318C172.353 5.11932 171.801 5.71378 171.409 6.47656C171.017 7.23935 170.821 8.12571 170.821 9.13565C170.821 10.1712 171.017 11.0682 171.409 11.8267C171.801 12.581 172.36 13.1648 173.084 13.5781ZM173.515 8.10014C173.531 7.74758 173.622 7.42585 173.787 7.13494C173.966 6.81534 174.213 6.56179 174.529 6.37429C174.848 6.18253 175.215 6.08665 175.628 6.08665C176.024 6.08665 176.372 6.17401 176.67 6.34872C176.972 6.51918 177.209 6.75568 177.379 7.05824C177.55 7.3608 177.635 7.7081 177.635 8.10014H173.515ZM188.864 14V8.32386C188.869 7.90199 188.95 7.5419 189.107 7.24361C189.269 6.94105 189.491 6.71094 189.772 6.55327C190.058 6.3956 190.386 6.31676 190.756 6.31676C191.31 6.31676 191.741 6.48509 192.048 6.82173C192.359 7.15838 192.512 7.62926 192.508 8.23438V14H195.231V7.74858C195.235 6.98153 195.094 6.32315 194.809 5.77344C194.528 5.21946 194.131 4.79545 193.62 4.50142C193.113 4.20312 192.518 4.05398 191.837 4.05398C191.091 4.05398 190.471 4.22017 189.977 4.55256C189.482 4.88068 189.124 5.33452 188.903 5.91406H188.788V0.909091H186.141V14H188.864ZM199.24 13.5781C199.969 13.9872 200.838 14.1918 201.848 14.1918C202.658 14.1918 203.372 14.0682 203.99 13.821C204.612 13.5696 205.119 13.2202 205.511 12.7727C205.907 12.321 206.169 11.7926 206.297 11.1875L203.779 11.0213C203.685 11.2685 203.548 11.4773 203.369 11.6477C203.191 11.8182 202.975 11.946 202.724 12.0312C202.472 12.1165 202.195 12.1591 201.893 12.1591C201.437 12.1591 201.043 12.0632 200.71 11.8714C200.378 11.6797 200.12 11.407 199.937 11.0533C199.758 10.6996 199.669 10.2798 199.669 9.79403V9.78764H206.355V9.03977C206.355 8.20455 206.237 7.47585 206.003 6.85369C205.769 6.22727 205.441 5.70739 205.019 5.29403C204.601 4.88068 204.111 4.57173 203.548 4.36719C202.99 4.15838 202.387 4.05398 201.74 4.05398C200.776 4.05398 199.937 4.26705 199.221 4.69318C198.509 5.11932 197.958 5.71378 197.566 6.47656C197.173 7.23935 196.977 8.12571 196.977 9.13565C196.977 10.1712 197.173 11.0682 197.566 11.8267C197.958 12.581 198.516 13.1648 199.24 13.5781ZM199.671 8.10014C199.687 7.74758 199.778 7.42585 199.943 7.13494C200.122 6.81534 200.369 6.56179 200.685 6.37429C201.004 6.18253 201.371 6.08665 201.784 6.08665C202.181 6.08665 202.528 6.17401 202.826 6.34872C203.129 6.51918 203.365 6.75568 203.536 7.05824C203.706 7.3608 203.791 7.7081 203.791 8.10014H199.671ZM208.132 4.18182V14H210.855V8.44531C210.855 8.04474 210.944 7.69105 211.123 7.38423C211.306 7.07741 211.553 6.83878 211.865 6.66832C212.18 6.49361 212.538 6.40625 212.938 6.40625C213.126 6.40625 213.333 6.42116 213.558 6.45099C213.784 6.48082 213.961 6.51491 214.089 6.55327V4.13707C213.97 4.10724 213.831 4.08381 213.673 4.06676C213.516 4.04972 213.369 4.04119 213.232 4.04119C212.683 4.04119 212.197 4.19886 211.775 4.5142C211.353 4.82528 211.053 5.28551 210.874 5.89489H210.771V4.18182H208.132ZM216.906 13.5781C217.635 13.9872 218.504 14.1918 219.514 14.1918C220.324 14.1918 221.038 14.0682 221.656 13.821C222.278 13.5696 222.785 13.2202 223.177 12.7727C223.573 12.321 223.835 11.7926 223.963 11.1875L221.445 11.0213C221.351 11.2685 221.214 11.4773 221.036 11.6477C220.857 11.8182 220.641 11.946 220.39 12.0312C220.138 12.1165 219.862 12.1591 219.559 12.1591C219.103 12.1591 218.709 12.0632 218.376 11.8714C218.044 11.6797 217.786 11.407 217.603 11.0533C217.424 10.6996 217.335 10.2798 217.335 9.79403V9.78764H224.021V9.03977C224.021 8.20455 223.903 7.47585 223.669 6.85369C223.435 6.22727 223.107 5.70739 222.685 5.29403C222.267 4.88068 221.777 4.57173 221.214 4.36719C220.656 4.15838 220.053 4.05398 219.406 4.05398C218.442 4.05398 217.603 4.26705 216.887 4.69318C216.175 5.11932 215.624 5.71378 215.232 6.47656C214.839 7.23935 214.643 8.12571 214.643 9.13565C214.643 10.1712 214.839 11.0682 215.232 11.8267C215.624 12.581 216.182 13.1648 216.906 13.5781ZM217.337 8.10014C217.354 7.74758 217.444 7.42585 217.609 7.13494C217.788 6.81534 218.036 6.56179 218.351 6.37429C218.67 6.18253 219.037 6.08665 219.45 6.08665C219.847 6.08665 220.194 6.17401 220.492 6.34872C220.795 6.51918 221.031 6.75568 221.202 7.05824C221.372 7.3608 221.457 7.7081 221.457 8.10014H217.337ZM3 6.5H0.5V9V29H3V522H0.5V542V544.5H3H23V543H317V544.5H337H339.5V542V522H338V29H339.5V9V6.5H337H317V8.00001L242 8V9L317 9.00001V11.5H334.5V29H337V522H334.5V539.5H317V542H23V539.5H5.5V522H4V29H5.5V11.5H23V9H98V8H23V6.5H3Z" fill="#F8C036"/>
</svg>
