<svg width="52" height="51" viewBox="0 0 52 51" fill="none" xmlns="http://www.w3.org/2000/svg">
<path d="M7.67179 50.9445H44.6549C46.9067 50.9445 48.5884 50.3741 49.7 49.2331C50.8116 48.0921 51.3674 46.3952 51.3674 44.1424V31.1523C51.3674 30.1576 51.2854 29.3641 51.1216 28.7717C50.9577 28.1791 50.6335 27.583 50.149 26.9833L43.415 18.4256C42.7451 17.6064 42.1573 16.9298 41.6515 16.3959C41.1455 15.862 40.6395 15.4451 40.1336 15.1452C39.6276 14.8453 39.0504 14.6368 38.402 14.5198C37.7536 14.4028 36.952 14.3443 35.9971 14.3443H31.807V17.4382H36.2535C37.0374 17.4382 37.7073 17.5515 38.263 17.7783C38.8189 18.005 39.4104 18.5134 40.0375 19.3033L47.0066 28.256C47.4483 28.8264 47.6015 29.2287 47.466 29.4628C47.3306 29.6968 46.9708 29.8138 46.3866 29.8138H32.7689C32.2132 29.8138 31.8035 29.9967 31.5398 30.3625C31.2762 30.7281 31.1444 31.1377 31.1444 31.5911V31.6789C31.1444 32.5274 30.9378 33.3502 30.5245 34.1474C30.1112 34.9448 29.5339 35.6031 28.7927 36.1222C28.0516 36.6416 27.1752 36.9013 26.1634 36.9013C25.1515 36.9013 24.275 36.6416 23.5339 36.1222C22.7928 35.6031 22.2192 34.9448 21.813 34.1474C21.4069 33.3502 21.2038 32.5274 21.2038 31.6789V31.5911C21.2038 31.1377 21.0684 30.7281 20.7976 30.3625C20.5268 29.9967 20.1135 29.8138 19.5577 29.8138H5.98295C5.37013 29.8138 5.00671 29.6858 4.89271 29.4298C4.77869 29.1738 4.92832 28.7825 5.34162 28.256L12.2466 19.3691C12.8879 18.5646 13.4936 18.0416 14.0637 17.8002C14.6337 17.5589 15.3036 17.4382 16.0732 17.4382H20.5411V14.3443H16.3297C15.3748 14.3443 14.5732 14.4028 13.9247 14.5198C13.2763 14.6368 12.6991 14.8453 12.1931 15.1452C11.6872 15.4451 11.1777 15.8656 10.6646 16.4069C10.1516 16.9481 9.56013 17.643 8.89031 18.4914L2.17775 26.9833C1.70744 27.5684 1.38678 28.1609 1.21576 28.7606C1.04474 29.3604 0.959229 30.1576 0.959229 31.1523V44.1424C0.959229 46.4097 1.51861 48.1103 2.63737 49.2441C3.75612 50.3777 5.43426 50.9445 7.67179 50.9445ZM7.71454 47.4119C6.64566 47.4119 5.82619 47.1193 5.25611 46.5341C4.68605 45.949 4.40102 45.0859 4.40102 43.9449V33.0395H17.9544C18.1254 34.3999 18.5886 35.6177 19.3439 36.6927C20.0993 37.768 21.0648 38.6165 22.2406 39.2383C23.4163 39.8599 24.7239 40.1708 26.1634 40.1708C27.6171 40.1708 28.9318 39.8599 30.1075 39.2383C31.2833 38.6165 32.2453 37.768 32.9935 36.6927C33.7417 35.6177 34.2014 34.3999 34.3724 33.0395H47.9257V43.9449C47.9257 45.0859 47.6372 45.949 47.06 46.5341C46.4828 47.1193 45.6669 47.4119 44.6122 47.4119H7.71454ZM26.1634 32.4249C26.6195 32.4249 27.0185 32.2567 27.3604 31.9203C27.7025 31.5838 27.8735 31.1816 27.8735 30.7134V8.17839L27.724 4.90893L29.1775 6.44491L32.4055 9.99961C32.7048 10.3507 33.0968 10.5262 33.5813 10.5262C34.0232 10.5262 34.3902 10.38 34.6824 10.0874C34.9745 9.79481 35.1206 9.4291 35.1206 8.99025C35.1206 8.56603 34.9567 8.17838 34.629 7.82731L27.4033 0.673995C27.1895 0.454569 26.9829 0.30097 26.7834 0.213199C26.5839 0.125428 26.3772 0.081543 26.1634 0.081543C25.9496 0.081543 25.743 0.125428 25.5435 0.213199C25.344 0.30097 25.1373 0.454569 24.9235 0.673995L17.6978 7.82731C17.3701 8.17838 17.2062 8.56603 17.2062 8.99025C17.2062 9.4291 17.3487 9.79481 17.6337 10.0874C17.9188 10.38 18.2822 10.5262 18.724 10.5262C19.2228 10.5262 19.6218 10.3507 19.9211 9.99961L23.1491 6.44491L24.6028 4.88698L24.4746 8.17839V30.7134C24.4746 31.1816 24.642 31.5838 24.9769 31.9203C25.3119 32.2567 25.7074 32.4249 26.1634 32.4249Z" fill="#F8C036"/>
</svg>
